<?xml version="1.0" standalone="no"?>
<!DOCTYPE svg PUBLIC "-//W3C//DTD SVG 20010904//EN"
 "http://www.w3.org/TR/2001/REC-SVG-20010904/DTD/svg10.dtd">
<svg version="1.0" xmlns="http://www.w3.org/2000/svg"
 width="704.000000pt" height="704.000000pt" viewBox="0 0 704.000000 704.000000"
 preserveAspectRatio="xMidYMid meet">
<metadata>
Created by potrace 1.14, written by Peter Selinger 2001-2017
</metadata>
<g transform="translate(0.000000,704.000000) scale(0.100000,-0.100000)"
fill="#000000" stroke="none">
<path d="M3339 6956 c-2 -2 -44 -7 -94 -10 -49 -4 -99 -9 -110 -11 -11 -3 -40
-7 -65 -10 -25 -2 -56 -7 -70 -10 -50 -10 -146 -28 -167 -30 -11 -2 -30 -6
-41 -9 -11 -4 -29 -8 -39 -11 -10 -2 -52 -13 -93 -25 -41 -11 -82 -23 -90 -25
-29 -6 -175 -55 -195 -65 -11 -5 -51 -21 -90 -36 -95 -36 -339 -155 -444 -217
-164 -96 -378 -249 -525 -377 -46 -39 -302 -296 -326 -326 -35 -44 -121 -150
-133 -164 -8 -8 -24 -31 -37 -50 -13 -19 -27 -37 -30 -40 -13 -11 -139 -209
-192 -301 -64 -111 -144 -274 -193 -394 -22 -53 -76 -204 -77 -215 0 -3 -6
-21 -14 -40 -16 -43 -54 -175 -61 -209 -2 -14 -13 -61 -23 -106 -10 -44 -21
-100 -25 -125 -3 -25 -8 -52 -10 -60 -2 -8 -7 -40 -10 -70 -4 -30 -9 -67 -10
-82 -25 -192 -25 -569 0 -758 3 -19 7 -55 10 -80 3 -25 10 -67 15 -95 5 -27
12 -66 15 -85 3 -19 8 -42 10 -50 2 -8 7 -28 9 -45 11 -60 77 -289 115 -398
55 -154 150 -367 218 -487 90 -160 263 -424 293 -450 4 -3 26 -30 49 -60 161
-205 424 -455 646 -615 16 -11 34 -26 41 -32 7 -7 15 -13 19 -13 3 0 34 -19
68 -42 75 -52 67 -47 214 -130 115 -65 255 -134 359 -176 132 -55 372 -134
444 -148 14 -3 34 -8 45 -11 11 -4 25 -8 30 -9 25 -5 62 -13 85 -19 181 -40
458 -69 645 -67 110 1 112 1 168 36 63 40 99 108 99 186 1 39 -5 68 -16 85 -9
14 -13 25 -9 25 4 0 -8 16 -27 35 -57 59 -101 73 -246 79 -171 7 -277 16 -349
30 -11 2 -42 7 -70 10 -83 12 -304 64 -355 84 -8 3 -19 7 -25 7 -5 1 -17 5
-25 8 -8 3 -60 22 -115 42 -55 20 -118 44 -140 53 -82 34 -322 160 -393 205
-40 26 -76 47 -81 47 -5 0 -11 7 -15 15 -3 8 -10 15 -16 15 -10 0 -192 135
-260 194 -19 17 -98 94 -175 171 -201 202 -347 396 -488 648 -37 64 -66 120
-67 122 0 3 -14 35 -31 72 -17 38 -44 100 -59 138 -15 39 -31 79 -35 90 -5 11
-9 22 -10 25 -1 3 -13 43 -28 90 -31 100 -63 223 -70 265 -3 17 -7 37 -10 45
-3 8 -8 33 -11 55 -3 22 -8 51 -10 65 -5 26 -10 72 -23 195 -14 136 -7 530 11
632 2 10 7 41 11 68 5 28 9 57 10 65 42 264 156 601 286 845 23 44 50 95 58
113 8 17 19 32 23 32 4 0 8 5 8 11 0 6 14 30 30 54 17 24 30 46 30 50 0 3 5
11 10 18 6 7 46 60 89 119 44 59 85 114 93 122 7 7 33 38 58 67 82 97 244 254
349 339 24 19 48 40 55 45 59 54 350 242 431 280 22 10 42 21 45 24 5 6 37 21
194 91 81 36 285 106 376 129 47 12 101 26 120 31 52 13 91 21 125 26 31 3 95
14 129 20 10 2 51 6 90 10 39 3 82 8 96 10 29 5 361 5 405 0 17 -2 66 -7 109
-10 43 -4 86 -9 95 -11 40 -7 118 -18 139 -19 12 -1 22 -4 22 -7 0 -3 7 -6 15
-6 18 0 110 -20 185 -41 30 -8 55 -14 55 -13 0 4 247 -83 322 -115 87 -36 266
-124 343 -170 25 -15 54 -32 65 -38 20 -11 72 -45 90 -58 6 -4 57 -42 115 -84
58 -43 114 -85 125 -95 11 -9 47 -41 80 -70 72 -62 213 -205 272 -274 23 -28
54 -63 68 -80 49 -58 161 -216 217 -307 47 -76 174 -321 209 -403 30 -71 94
-247 103 -285 2 -8 15 -58 30 -110 26 -97 30 -115 46 -210 6 -30 12 -66 15
-80 3 -14 8 -47 11 -75 3 -27 7 -63 9 -80 2 -16 7 -85 10 -153 8 -178 12 -207
34 -249 28 -52 40 -65 83 -91 79 -49 190 -38 260 26 70 63 79 98 73 286 -2 88
-7 177 -9 196 -3 19 -8 59 -11 90 -3 30 -7 66 -10 80 -2 14 -7 42 -10 63 -7
51 -33 178 -52 252 -8 33 -16 67 -17 75 -1 9 -5 20 -8 25 -4 8 -17 53 -23 85
0 3 -14 43 -30 90 -16 47 -30 87 -30 90 -1 3 -9 22 -18 44 -9 21 -17 40 -17
43 0 2 -9 25 -21 51 -11 26 -27 63 -36 82 -30 69 -125 255 -143 280 -10 14
-17 27 -17 30 0 3 -6 16 -15 30 -33 54 -149 232 -158 243 -45 55 -60 76 -60
82 0 4 -8 15 -18 24 -10 9 -31 34 -48 56 -72 99 -273 310 -378 399 -27 22 -58
50 -70 61 -21 20 -94 79 -152 122 -16 12 -50 37 -77 57 -26 20 -49 36 -51 36
-3 0 -34 20 -71 45 -152 105 -420 242 -610 314 -33 13 -69 27 -80 31 -24 11
-114 40 -135 45 -8 2 -44 12 -80 23 -54 17 -84 25 -130 37 -3 0 -23 5 -45 10
-22 4 -44 9 -50 11 -60 14 -220 40 -300 49 -33 4 -73 9 -90 12 -35 6 -531 14
-536 9z"/>
<path d="M3500 6060 c-42 -11 -83 -37 -111 -67 -99 -106 -68 -281 63 -349 41
-21 64 -25 188 -29 127 -5 191 -12 290 -31 108 -22 108 -22 185 -45 39 -11 75
-21 80 -22 10 -2 62 -22 100 -37 11 -5 40 -17 65 -27 59 -24 208 -100 242
-124 14 -11 29 -19 32 -19 4 0 31 -18 61 -40 30 -22 57 -40 59 -40 3 0 15 -8
27 -17 28 -24 58 -49 98 -81 46 -38 209 -201 251 -252 119 -145 240 -341 308
-500 19 -45 34 -81 37 -90 1 -3 5 -12 8 -20 13 -33 57 -179 71 -240 33 -139
44 -229 51 -389 6 -151 17 -187 74 -239 121 -111 320 -60 363 93 25 86 10 315
-38 573 -43 231 -191 609 -305 780 -16 24 -29 47 -29 53 0 5 -4 9 -10 9 -5 0
-10 6 -10 13 0 7 -9 23 -20 35 -11 12 -20 24 -20 27 0 8 -63 89 -72 93 -5 2
-8 10 -8 17 0 7 -3 15 -7 17 -5 2 -32 32 -62 68 -96 115 -308 317 -382 363
-16 11 -29 23 -29 28 0 5 -5 9 -10 9 -6 0 -34 17 -63 38 -140 103 -390 234
-557 292 -36 12 -74 26 -85 31 -11 4 -47 16 -80 25 -63 18 -64 19 -105 27 -14
3 -32 8 -40 11 -16 6 -52 13 -110 21 -19 3 -45 8 -58 11 -12 2 -42 7 -67 9
-25 3 -66 8 -92 11 -76 9 -256 11 -283 4z"/>
<path d="M3474 5157 c-122 -49 -178 -185 -123 -301 24 -53 79 -104 122 -117
18 -5 64 -11 102 -14 185 -14 219 -20 345 -62 170 -57 312 -146 453 -283 53
-53 97 -101 97 -108 0 -6 6 -15 13 -19 11 -8 60 -84 104 -163 70 -127 117
-314 128 -516 3 -63 15 -114 26 -114 5 0 9 -6 9 -14 0 -8 19 -31 42 -50 116
-100 288 -59 351 83 17 39 19 58 13 165 -7 138 -9 155 -31 251 -28 125 -34
147 -72 245 -190 491 -612 862 -1118 984 -134 33 -159 36 -305 41 -85 3 -135
1 -156 -8z"/>
<path d="M3398 4260 c-165 -37 -319 -135 -414 -265 -16 -22 -31 -42 -34 -45
-3 -3 -17 -27 -32 -55 -164 -310 -74 -697 212 -909 59 -44 126 -79 195 -102
85 -29 256 -44 340 -29 115 21 244 78 328 145 70 56 187 197 187 226 0 7 5 14
10 14 6 0 10 6 10 14 0 7 8 31 17 52 9 22 17 44 19 49 1 6 7 30 14 55 15 55
20 198 8 260 -5 25 -10 52 -11 60 -6 32 -41 126 -58 157 -111 199 -266 319
-478 373 -74 19 -227 19 -313 0z"/>
</g>
</svg>
