<svg width="16" height="16" viewBox="0 0 16 16" fill="none" xmlns="http://www.w3.org/2000/svg">
<g clip-path="url(#clip0_2_838)">
<path d="M0.75572 0.0562501C0.452595 0.1625 0.17447 0.4375 0.0557205 0.75C-0.00365453 0.90625 -0.00365453 0.990625 0.00259547 2.7125L0.0119705 4.51563L0.11822 4.7125C0.246345 4.94688 0.440095 5.13438 0.677595 5.24375L0.85572 5.32812H3.66822H6.48072L6.66822 5.2375C6.90572 5.11875 7.1151 4.90938 7.23385 4.67188L7.32447 4.48438V2.67188V0.859375L7.2401 0.68125C7.13072 0.44375 6.94322 0.25 6.70885 0.121875L6.51197 0.0156255L3.7151 0.0093751C1.09322 0.00312519 0.908845 0.00625038 0.75572 0.0562501Z" fill="#7D7D7E"/>
<path d="M9.4585 0.0437498C9.13975 0.159375 8.88975 0.384375 8.74913 0.684375L8.66788 0.859375V4.67188V8.48438L8.7585 8.67188C8.87725 8.90937 9.08663 9.11875 9.32413 9.2375L9.51163 9.32812H12.3241H15.1366L15.3148 9.24375C15.5523 9.13437 15.746 8.94688 15.8741 8.7125L15.9804 8.51562V4.67188V0.828125L15.896 0.65625C15.7866 0.434375 15.5616 0.209374 15.3398 0.0999994L15.1679 0.015625L12.371 0.00937462C10.1241 0.00312519 9.55225 0.00937462 9.4585 0.0437498Z" fill="#7D7D7E"/>
<path d="M0.817877 6.7C0.508502 6.8 0.261627 7.00937 0.0991272 7.31875L0.0116272 7.48438V11.3281V15.1719L0.0960022 15.3438C0.205377 15.5656 0.430377 15.7906 0.652252 15.9L0.824127 15.9844H3.66788H6.51163L6.7085 15.8781C6.94288 15.75 7.13038 15.5563 7.23975 15.3187L7.32413 15.1406V11.3281V7.51562L7.2335 7.32812C7.11475 7.09062 6.90538 6.88125 6.66788 6.7625L6.48038 6.67188L3.71475 6.66562C1.48975 6.6625 0.924127 6.66875 0.817877 6.7Z" fill="#7D7D7E"/>
<path d="M9.43965 10.7188C9.2084 10.8031 9.00215 10.9594 8.86152 11.1563C8.6459 11.4656 8.64902 11.4438 8.6584 13.3938L8.66777 15.1406L8.75215 15.3188C8.86152 15.5563 9.04902 15.75 9.2834 15.8781L9.48027 15.9844H12.324H15.1678L15.3396 15.9C15.5615 15.7906 15.7865 15.5656 15.8959 15.3438L15.9803 15.1719V13.3281V11.4844L15.874 11.2875C15.7459 11.0531 15.5521 10.8656 15.3146 10.7563L15.1365 10.6719L12.3709 10.6656C9.71152 10.6594 9.59902 10.6594 9.43965 10.7188Z" fill="#7D7D7E"/>
</g>
<defs>
<clipPath id="clip0_2_838">
<rect width="16" height="16" fill="white"/>
</clipPath>
</defs>
</svg>
