<svg width="44" height="43" viewBox="0 0 44 43" fill="none" xmlns="http://www.w3.org/2000/svg">
<path d="M22.1964 42.4689C10.4867 42.4689 0.961914 32.9441 0.961914 21.2344C0.961914 9.52477 10.4867 0 22.1964 0C33.906 0 43.4308 9.52477 43.4308 21.2344C43.4308 22.0056 42.805 22.6315 42.0338 22.6315C41.2627 22.6315 40.6368 22.0056 40.6368 21.2344C40.6368 11.0671 32.3638 2.79401 22.1964 2.79401C12.029 2.79401 3.75592 11.0671 3.75592 21.2344C3.75592 31.4018 12.029 39.6749 22.1964 39.6749C22.9675 39.6749 23.5934 40.3008 23.5934 41.0719C23.5934 41.843 22.9675 42.4689 22.1964 42.4689Z" fill="#FF7901"/>
<path d="M22.1965 24.3109C23.8939 24.3109 25.2699 22.9349 25.2699 21.2375C25.2699 19.5401 23.8939 18.1641 22.1965 18.1641C20.4991 18.1641 19.123 19.5401 19.123 21.2375C19.123 22.9349 20.4991 24.3109 22.1965 24.3109Z" fill="#FF7901"/>
<path d="M22.196 25.7064C19.7317 25.7064 17.7256 23.7003 17.7256 21.236C17.7256 18.7717 19.7317 16.7656 22.196 16.7656C24.6603 16.7656 26.6664 18.7717 26.6664 21.236C26.6664 23.7003 24.6603 25.7064 22.196 25.7064ZM22.196 19.5596C21.2712 19.5596 20.5196 20.3112 20.5196 21.236C20.5196 22.1609 21.2712 22.9124 22.196 22.9124C23.1208 22.9124 23.8724 22.1609 23.8724 21.236C23.8724 20.3112 23.1208 19.5596 22.196 19.5596Z" fill="#FF7901"/>
<path d="M36.4462 22.6294C35.6751 22.6294 35.0492 22.0035 35.0492 21.2324C35.0492 14.1468 29.2824 8.37994 22.1968 8.37994C21.4257 8.37994 20.7998 7.75409 20.7998 6.98294C20.7998 6.2118 21.4257 5.58594 22.1968 5.58594C30.8247 5.58594 37.8432 12.6045 37.8432 21.2324C37.8432 22.0035 37.2174 22.6294 36.4462 22.6294Z" fill="#FF7901"/>
<path d="M43.4309 21.2343H40.6369C40.6369 11.0669 32.3638 2.79388 22.1964 2.79388V-0.00012207C33.9061 -0.00012207 43.4309 9.52465 43.4309 21.2343Z" fill="#FF7901"/>
<path d="M30.8582 22.6312C30.0871 22.6312 29.4612 22.0054 29.4612 21.2342C29.4612 17.2276 26.2034 13.9698 22.1968 13.9698C21.4257 13.9698 20.7998 13.3439 20.7998 12.5728C20.7998 11.8016 21.4257 11.1758 22.1968 11.1758C27.7429 11.1758 32.2552 15.6881 32.2552 21.2342C32.2552 22.0054 31.6294 22.6312 30.8582 22.6312Z" fill="#FF7901"/>
</svg>
